<svg width="303" height="68" viewBox="0 0 303 68" fill="none" xmlns="http://www.w3.org/2000/svg">
<g filter="url(#filter0_dd_363_3)">
<path d="M4.19769 20C4.19769 8.9543 13.152 0 24.1977 0H273C284.046 0 293 8.95431 293 20V40C293 51.0457 284.046 60 273 60H24.1977C13.152 60 4.19769 51.0457 4.19769 40V20Z" fill="#20533A"/>
</g>
<path d="M46.581 38H34.62V19.1H38.319V34.706H46.581V38ZM46.8109 31.25C46.8109 28.964 47.3689 27.209 48.4849 25.985C49.6009 24.743 51.1669 24.122 53.1829 24.122C54.2629 24.122 55.1989 24.293 55.9909 24.635C56.7829 24.977 57.4399 25.463 57.9619 26.093C58.4839 26.705 58.8709 27.452 59.1229 28.334C59.3929 29.216 59.5279 30.188 59.5279 31.25C59.5279 33.536 58.9699 35.3 57.8539 36.542C56.7559 37.766 55.1989 38.378 53.1829 38.378C52.1029 38.378 51.1669 38.207 50.3749 37.865C49.5829 37.523 48.9169 37.046 48.3769 36.434C47.8549 35.804 47.4589 35.048 47.1889 34.166C46.9369 33.284 46.8109 32.312 46.8109 31.25ZM50.4289 31.25C50.4289 31.844 50.4829 32.393 50.5909 32.897C50.6989 33.401 50.8609 33.842 51.0769 34.22C51.2929 34.598 51.5719 34.895 51.9139 35.111C52.2739 35.309 52.6969 35.408 53.1829 35.408C54.1009 35.408 54.7849 35.075 55.2349 34.409C55.6849 33.743 55.9099 32.69 55.9099 31.25C55.9099 30.008 55.7029 29.009 55.2889 28.253C54.8749 27.479 54.1729 27.092 53.1829 27.092C52.3189 27.092 51.6439 27.416 51.1579 28.064C50.6719 28.712 50.4289 29.774 50.4289 31.25ZM73.3819 38C73.3819 39.962 72.8509 41.402 71.7889 42.32C70.7269 43.256 69.2419 43.724 67.3339 43.724C66.0379 43.724 65.0119 43.634 64.2559 43.454C63.5179 43.274 62.9599 43.085 62.5819 42.887L63.3109 40.106C63.7249 40.268 64.2019 40.43 64.7419 40.592C65.2999 40.754 65.9839 40.835 66.7939 40.835C68.0179 40.835 68.8459 40.565 69.2779 40.025C69.7279 39.503 69.9529 38.765 69.9529 37.811V36.947H69.8449C69.2149 37.793 68.0989 38.216 66.4969 38.216C64.7509 38.216 63.4459 37.676 62.5819 36.596C61.7359 35.516 61.3129 33.824 61.3129 31.52C61.3129 29.108 61.8889 27.281 63.0409 26.039C64.1929 24.797 65.8669 24.176 68.0629 24.176C69.2149 24.176 70.2409 24.257 71.1409 24.419C72.0589 24.581 72.8059 24.77 73.3819 24.986V38ZM67.4419 35.408C68.1259 35.408 68.6479 35.255 69.0079 34.949C69.3859 34.643 69.6739 34.184 69.8719 33.572V27.497C69.3139 27.263 68.6209 27.146 67.7929 27.146C66.8929 27.146 66.1909 27.488 65.6869 28.172C65.1829 28.838 64.9309 29.909 64.9309 31.385C64.9309 32.699 65.1469 33.698 65.5789 34.382C66.0109 35.066 66.6319 35.408 67.4419 35.408ZM76.7335 24.5H80.2435V38H76.7335V24.5ZM76.2205 20.693C76.2205 20.171 76.4095 19.73 76.7875 19.37C77.1835 18.992 77.7235 18.803 78.4075 18.803C79.0915 18.803 79.6405 18.992 80.0545 19.37C80.4865 19.73 80.7025 20.171 80.7025 20.693C80.7025 21.215 80.4865 21.656 80.0545 22.016C79.6405 22.358 79.0915 22.529 78.4075 22.529C77.7235 22.529 77.1835 22.358 76.7875 22.016C76.4095 21.656 76.2205 21.215 76.2205 20.693ZM91.9494 38V30.332C91.9494 29.234 91.7874 28.442 91.4634 27.956C91.1574 27.47 90.6264 27.227 89.8704 27.227C89.2044 27.227 88.6374 27.425 88.1694 27.821C87.7194 28.199 87.3954 28.676 87.1974 29.252V38H83.6874V24.5H86.4684L86.8734 26.282H86.9814C87.3954 25.706 87.9444 25.202 88.6284 24.77C89.3124 24.338 90.1944 24.122 91.2744 24.122C91.9404 24.122 92.5344 24.212 93.0564 24.392C93.5784 24.572 94.0194 24.869 94.3794 25.283C94.7394 25.697 95.0094 26.264 95.1894 26.984C95.3694 27.686 95.4594 28.559 95.4594 29.603V38H91.9494ZM113.464 32.924C113.464 32.348 113.248 31.88 112.816 31.52C112.402 31.16 111.871 30.836 111.223 30.548C110.593 30.242 109.9 29.936 109.144 29.63C108.406 29.306 107.713 28.919 107.065 28.469C106.435 28.001 105.904 27.425 105.472 26.741C105.058 26.057 104.851 25.184 104.851 24.122C104.851 23.204 105.004 22.412 105.31 21.746C105.616 21.062 106.048 20.495 106.606 20.045C107.182 19.595 107.857 19.262 108.631 19.046C109.405 18.83 110.269 18.722 111.223 18.722C112.321 18.722 113.356 18.821 114.328 19.019C115.3 19.199 116.101 19.469 116.731 19.829L115.57 22.934C115.174 22.682 114.58 22.457 113.788 22.259C112.996 22.043 112.141 21.935 111.223 21.935C110.359 21.935 109.693 22.106 109.225 22.448C108.775 22.79 108.55 23.249 108.55 23.825C108.55 24.365 108.757 24.815 109.171 25.175C109.603 25.535 110.134 25.868 110.764 26.174C111.412 26.48 112.105 26.795 112.843 27.119C113.599 27.443 114.292 27.839 114.922 28.307C115.57 28.757 116.101 29.324 116.515 30.008C116.947 30.674 117.163 31.511 117.163 32.519C117.163 33.527 116.992 34.4 116.65 35.138C116.326 35.858 115.858 36.461 115.246 36.947C114.652 37.433 113.923 37.793 113.059 38.027C112.213 38.261 111.277 38.378 110.251 38.378C108.901 38.378 107.713 38.252 106.687 38C105.661 37.748 104.905 37.496 104.419 37.244L105.607 34.085C105.805 34.193 106.057 34.31 106.363 34.436C106.687 34.562 107.047 34.679 107.443 34.787C107.839 34.895 108.253 34.985 108.685 35.057C109.135 35.129 109.594 35.165 110.062 35.165C111.16 35.165 111.997 34.985 112.573 34.625C113.167 34.247 113.464 33.68 113.464 32.924ZM130.347 36.839C129.807 37.271 129.069 37.64 128.133 37.946C127.215 38.234 126.234 38.378 125.19 38.378C123.012 38.378 121.419 37.748 120.411 36.488C119.403 35.21 118.899 33.464 118.899 31.25C118.899 28.874 119.466 27.092 120.6 25.904C121.734 24.716 123.327 24.122 125.379 24.122C126.063 24.122 126.729 24.212 127.377 24.392C128.025 24.572 128.601 24.869 129.105 25.283C129.609 25.697 130.014 26.255 130.32 26.957C130.626 27.659 130.779 28.532 130.779 29.576C130.779 29.954 130.752 30.359 130.698 30.791C130.662 31.223 130.599 31.673 130.509 32.141H122.409C122.463 33.275 122.751 34.13 123.273 34.706C123.813 35.282 124.677 35.57 125.865 35.57C126.603 35.57 127.26 35.462 127.836 35.246C128.43 35.012 128.88 34.778 129.186 34.544L130.347 36.839ZM125.325 26.93C124.407 26.93 123.723 27.209 123.273 27.767C122.841 28.307 122.58 29.036 122.49 29.954H127.512C127.584 28.982 127.431 28.235 127.053 27.713C126.693 27.191 126.117 26.93 125.325 26.93ZM133.258 19.1H136.768V25.58H136.876C137.254 25.148 137.74 24.806 138.334 24.554C138.928 24.302 139.585 24.176 140.305 24.176C141.925 24.176 143.158 24.734 144.004 25.85C144.868 26.948 145.3 28.631 145.3 30.899C145.3 33.329 144.697 35.174 143.491 36.434C142.303 37.694 140.665 38.324 138.577 38.324C137.425 38.324 136.372 38.225 135.418 38.027C134.464 37.847 133.744 37.64 133.258 37.406V19.1ZM139.279 27.146C138.631 27.146 138.1 27.317 137.686 27.659C137.29 27.983 136.984 28.46 136.768 29.09V34.976C137.056 35.12 137.362 35.219 137.686 35.273C138.028 35.327 138.388 35.354 138.766 35.354C139.72 35.354 140.44 35.012 140.926 34.328C141.43 33.626 141.682 32.519 141.682 31.007C141.682 28.433 140.881 27.146 139.279 27.146ZM147.652 25.283C148.372 24.959 149.227 24.707 150.217 24.527C151.207 24.329 152.242 24.23 153.322 24.23C154.258 24.23 155.041 24.347 155.671 24.581C156.301 24.797 156.796 25.112 157.156 25.526C157.534 25.94 157.795 26.435 157.939 27.011C158.101 27.587 158.182 28.235 158.182 28.955C158.182 29.747 158.155 30.548 158.101 31.358C158.047 32.15 158.011 32.933 157.993 33.707C157.993 34.481 158.02 35.237 158.074 35.975C158.128 36.695 158.263 37.379 158.479 38.027H155.617L155.05 36.164H154.915C154.555 36.722 154.051 37.208 153.403 37.622C152.773 38.018 151.954 38.216 150.946 38.216C150.316 38.216 149.749 38.126 149.245 37.946C148.741 37.748 148.309 37.478 147.949 37.136C147.589 36.776 147.31 36.362 147.112 35.894C146.914 35.408 146.815 34.868 146.815 34.274C146.815 33.446 146.995 32.753 147.355 32.195C147.733 31.619 148.264 31.16 148.948 30.818C149.65 30.458 150.478 30.215 151.432 30.089C152.404 29.945 153.484 29.9 154.672 29.954C154.798 28.946 154.726 28.226 154.456 27.794C154.186 27.344 153.583 27.119 152.647 27.119C151.945 27.119 151.198 27.191 150.406 27.335C149.632 27.479 148.993 27.668 148.489 27.902L147.652 25.283ZM152.107 35.327C152.809 35.327 153.367 35.174 153.781 34.868C154.195 34.544 154.501 34.202 154.699 33.842V32.087C154.141 32.033 153.601 32.024 153.079 32.06C152.575 32.096 152.125 32.177 151.729 32.303C151.333 32.429 151.018 32.609 150.784 32.843C150.55 33.077 150.433 33.374 150.433 33.734C150.433 34.238 150.577 34.634 150.865 34.922C151.171 35.192 151.585 35.327 152.107 35.327ZM172.549 38C172.549 39.962 172.018 41.402 170.956 42.32C169.894 43.256 168.409 43.724 166.501 43.724C165.205 43.724 164.179 43.634 163.423 43.454C162.685 43.274 162.127 43.085 161.749 42.887L162.478 40.106C162.892 40.268 163.369 40.43 163.909 40.592C164.467 40.754 165.151 40.835 165.961 40.835C167.185 40.835 168.013 40.565 168.445 40.025C168.895 39.503 169.12 38.765 169.12 37.811V36.947H169.012C168.382 37.793 167.266 38.216 165.664 38.216C163.918 38.216 162.613 37.676 161.749 36.596C160.903 35.516 160.48 33.824 160.48 31.52C160.48 29.108 161.056 27.281 162.208 26.039C163.36 24.797 165.034 24.176 167.23 24.176C168.382 24.176 169.408 24.257 170.308 24.419C171.226 24.581 171.973 24.77 172.549 24.986V38ZM166.609 35.408C167.293 35.408 167.815 35.255 168.175 34.949C168.553 34.643 168.841 34.184 169.039 33.572V27.497C168.481 27.263 167.788 27.146 166.96 27.146C166.06 27.146 165.358 27.488 164.854 28.172C164.35 28.838 164.098 29.909 164.098 31.385C164.098 32.699 164.314 33.698 164.746 34.382C165.178 35.066 165.799 35.408 166.609 35.408ZM175.522 25.283C176.242 24.959 177.097 24.707 178.087 24.527C179.077 24.329 180.112 24.23 181.192 24.23C182.128 24.23 182.911 24.347 183.541 24.581C184.171 24.797 184.666 25.112 185.026 25.526C185.404 25.94 185.665 26.435 185.809 27.011C185.971 27.587 186.052 28.235 186.052 28.955C186.052 29.747 186.025 30.548 185.971 31.358C185.917 32.15 185.881 32.933 185.863 33.707C185.863 34.481 185.89 35.237 185.944 35.975C185.998 36.695 186.133 37.379 186.349 38.027H183.487L182.92 36.164H182.785C182.425 36.722 181.921 37.208 181.273 37.622C180.643 38.018 179.824 38.216 178.816 38.216C178.186 38.216 177.619 38.126 177.115 37.946C176.611 37.748 176.179 37.478 175.819 37.136C175.459 36.776 175.18 36.362 174.982 35.894C174.784 35.408 174.685 34.868 174.685 34.274C174.685 33.446 174.865 32.753 175.225 32.195C175.603 31.619 176.134 31.16 176.818 30.818C177.52 30.458 178.348 30.215 179.302 30.089C180.274 29.945 181.354 29.9 182.542 29.954C182.668 28.946 182.596 28.226 182.326 27.794C182.056 27.344 181.453 27.119 180.517 27.119C179.815 27.119 179.068 27.191 178.276 27.335C177.502 27.479 176.863 27.668 176.359 27.902L175.522 25.283ZM179.977 35.327C180.679 35.327 181.237 35.174 181.651 34.868C182.065 34.544 182.371 34.202 182.569 33.842V32.087C182.011 32.033 181.471 32.024 180.949 32.06C180.445 32.096 179.995 32.177 179.599 32.303C179.203 32.429 178.888 32.609 178.654 32.843C178.42 33.077 178.303 33.374 178.303 33.734C178.303 34.238 178.447 34.634 178.735 34.922C179.041 35.192 179.455 35.327 179.977 35.327ZM189.295 24.5H192.805V38H189.295V24.5ZM188.782 20.693C188.782 20.171 188.971 19.73 189.349 19.37C189.745 18.992 190.285 18.803 190.969 18.803C191.653 18.803 192.202 18.992 192.616 19.37C193.048 19.73 193.264 20.171 193.264 20.693C193.264 21.215 193.048 21.656 192.616 22.016C192.202 22.358 191.653 22.529 190.969 22.529C190.285 22.529 189.745 22.358 189.349 22.016C188.971 21.656 188.782 21.215 188.782 20.693ZM211.393 33.815H205.588L204.157 38H200.458L207.262 18.965H209.989L216.793 38H212.905L211.393 33.815ZM206.533 30.845H210.583L209.179 26.633L208.612 23.663H208.477L207.91 26.66L206.533 30.845ZM229.82 33.248C229.82 34.004 229.829 34.76 229.847 35.516C229.865 36.272 229.946 37.109 230.09 38.027H227.579L227.093 36.272H226.985C226.625 36.902 226.103 37.415 225.419 37.811C224.753 38.189 223.961 38.378 223.043 38.378C221.351 38.378 220.037 37.82 219.101 36.704C218.165 35.588 217.697 33.842 217.697 31.466C217.697 29.162 218.219 27.371 219.263 26.093C220.307 24.815 221.837 24.176 223.853 24.176C224.411 24.176 224.87 24.212 225.23 24.284C225.59 24.338 225.95 24.437 226.31 24.581V19.1H229.82V33.248ZM223.853 35.408C224.537 35.408 225.077 35.246 225.473 34.922C225.869 34.58 226.148 34.094 226.31 33.464V27.74C226.058 27.542 225.779 27.398 225.473 27.308C225.167 27.2 224.771 27.146 224.285 27.146C223.295 27.146 222.548 27.479 222.044 28.145C221.558 28.811 221.315 29.954 221.315 31.574C221.315 32.726 221.513 33.653 221.909 34.355C222.323 35.057 222.971 35.408 223.853 35.408ZM240.567 38V30.656C240.567 29.414 240.45 28.532 240.216 28.01C239.982 27.488 239.496 27.227 238.758 27.227C238.146 27.227 237.651 27.398 237.273 27.74C236.895 28.064 236.607 28.487 236.409 29.009V38H232.899V24.5H235.626L236.031 26.282H236.139C236.553 25.706 237.075 25.202 237.705 24.77C238.353 24.338 239.181 24.122 240.189 24.122C241.053 24.122 241.755 24.302 242.295 24.662C242.853 25.004 243.285 25.589 243.591 26.417C244.005 25.715 244.536 25.157 245.184 24.743C245.832 24.329 246.615 24.122 247.533 24.122C248.289 24.122 248.928 24.212 249.45 24.392C249.99 24.572 250.422 24.887 250.746 25.337C251.088 25.769 251.34 26.354 251.502 27.092C251.664 27.83 251.745 28.766 251.745 29.9V38H248.235V30.413C248.235 29.351 248.118 28.559 247.884 28.037C247.668 27.497 247.173 27.227 246.399 27.227C245.769 27.227 245.265 27.398 244.887 27.74C244.527 28.082 244.257 28.55 244.077 29.144V38H240.567ZM254.923 24.5H258.433V38H254.923V24.5ZM254.41 20.693C254.41 20.171 254.599 19.73 254.977 19.37C255.373 18.992 255.913 18.803 256.597 18.803C257.281 18.803 257.83 18.992 258.244 19.37C258.676 19.73 258.892 20.171 258.892 20.693C258.892 21.215 258.676 21.656 258.244 22.016C257.83 22.358 257.281 22.529 256.597 22.529C255.913 22.529 255.373 22.358 254.977 22.016C254.599 21.656 254.41 21.215 254.41 20.693ZM270.139 38V30.332C270.139 29.234 269.977 28.442 269.653 27.956C269.347 27.47 268.816 27.227 268.06 27.227C267.394 27.227 266.827 27.425 266.359 27.821C265.909 28.199 265.585 28.676 265.387 29.252V38H261.877V24.5H264.658L265.063 26.282H265.171C265.585 25.706 266.134 25.202 266.818 24.77C267.502 24.338 268.384 24.122 269.464 24.122C270.13 24.122 270.724 24.212 271.246 24.392C271.768 24.572 272.209 24.869 272.569 25.283C272.929 25.697 273.199 26.264 273.379 26.984C273.559 27.686 273.649 28.559 273.649 29.603V38H270.139Z" fill="white"/>
<defs>
<filter id="filter0_dd_363_3" x="0.197693" y="0" width="296.802" height="68" filterUnits="userSpaceOnUse" color-interpolation-filters="sRGB">
<feFlood flood-opacity="0" result="BackgroundImageFix"/>
<feColorMatrix in="SourceAlpha" type="matrix" values="0 0 0 0 0 0 0 0 0 0 0 0 0 0 0 0 0 0 127 0" result="hardAlpha"/>
<feOffset dy="4"/>
<feGaussianBlur stdDeviation="2"/>
<feComposite in2="hardAlpha" operator="out"/>
<feColorMatrix type="matrix" values="0 0 0 0 0 0 0 0 0 0 0 0 0 0 0 0 0 0 0.25 0"/>
<feBlend mode="normal" in2="BackgroundImageFix" result="effect1_dropShadow_363_3"/>
<feColorMatrix in="SourceAlpha" type="matrix" values="0 0 0 0 0 0 0 0 0 0 0 0 0 0 0 0 0 0 127 0" result="hardAlpha"/>
<feOffset dy="4"/>
<feGaussianBlur stdDeviation="2"/>
<feComposite in2="hardAlpha" operator="out"/>
<feColorMatrix type="matrix" values="0 0 0 0 0 0 0 0 0 0 0 0 0 0 0 0 0 0 0.25 0"/>
<feBlend mode="normal" in2="effect1_dropShadow_363_3" result="effect2_dropShadow_363_3"/>
<feBlend mode="normal" in="SourceGraphic" in2="effect2_dropShadow_363_3" result="shape"/>
</filter>
</defs>
</svg>
