<svg width="323" height="68" viewBox="0 0 323 68" fill="none" xmlns="http://www.w3.org/2000/svg">
<g filter="url(#filter0_dd_363_4)">
<path d="M4 20C4 8.9543 12.9543 0 24 0H299C310.046 0 319 8.95431 319 20V40C319 51.0457 310.046 60 299 60H24C12.9543 60 4 51.0457 4 40V20Z" fill="#FF8A01"/>
</g>
<path d="M35.581 37H23.62V18.1H27.319V33.706H35.581V37ZM35.8109 30.25C35.8109 27.964 36.3689 26.209 37.4849 24.985C38.6009 23.743 40.1669 23.122 42.1829 23.122C43.2629 23.122 44.1989 23.293 44.9909 23.635C45.7829 23.977 46.4399 24.463 46.9619 25.093C47.4839 25.705 47.8709 26.452 48.1229 27.334C48.3929 28.216 48.5279 29.188 48.5279 30.25C48.5279 32.536 47.9699 34.3 46.8539 35.542C45.7559 36.766 44.1989 37.378 42.1829 37.378C41.1029 37.378 40.1669 37.207 39.3749 36.865C38.5829 36.523 37.9169 36.046 37.3769 35.434C36.8549 34.804 36.4589 34.048 36.1889 33.166C35.9369 32.284 35.8109 31.312 35.8109 30.25ZM39.4289 30.25C39.4289 30.844 39.4829 31.393 39.5909 31.897C39.6989 32.401 39.8609 32.842 40.0769 33.22C40.2929 33.598 40.5719 33.895 40.9139 34.111C41.2739 34.309 41.6969 34.408 42.1829 34.408C43.1009 34.408 43.7849 34.075 44.2349 33.409C44.6849 32.743 44.9099 31.69 44.9099 30.25C44.9099 29.008 44.7029 28.009 44.2889 27.253C43.8749 26.479 43.1729 26.092 42.1829 26.092C41.3189 26.092 40.6439 26.416 40.1579 27.064C39.6719 27.712 39.4289 28.774 39.4289 30.25ZM62.3819 37C62.3819 38.962 61.8509 40.402 60.7889 41.32C59.7269 42.256 58.2419 42.724 56.3339 42.724C55.0379 42.724 54.0119 42.634 53.2559 42.454C52.5179 42.274 51.9599 42.085 51.5819 41.887L52.3109 39.106C52.7249 39.268 53.2019 39.43 53.7419 39.592C54.2999 39.754 54.9839 39.835 55.7939 39.835C57.0179 39.835 57.8459 39.565 58.2779 39.025C58.7279 38.503 58.9529 37.765 58.9529 36.811V35.947H58.8449C58.2149 36.793 57.0989 37.216 55.4969 37.216C53.7509 37.216 52.4459 36.676 51.5819 35.596C50.7359 34.516 50.3129 32.824 50.3129 30.52C50.3129 28.108 50.8889 26.281 52.0409 25.039C53.1929 23.797 54.8669 23.176 57.0629 23.176C58.2149 23.176 59.2409 23.257 60.1409 23.419C61.0589 23.581 61.8059 23.77 62.3819 23.986V37ZM56.4419 34.408C57.1259 34.408 57.6479 34.255 58.0079 33.949C58.3859 33.643 58.6739 33.184 58.8719 32.572V26.497C58.3139 26.263 57.6209 26.146 56.7929 26.146C55.8929 26.146 55.1909 26.488 54.6869 27.172C54.1829 27.838 53.9309 28.909 53.9309 30.385C53.9309 31.699 54.1469 32.698 54.5789 33.382C55.0109 34.066 55.6319 34.408 56.4419 34.408ZM65.7335 23.5H69.2435V37H65.7335V23.5ZM65.2205 19.693C65.2205 19.171 65.4095 18.73 65.7875 18.37C66.1835 17.992 66.7235 17.803 67.4075 17.803C68.0915 17.803 68.6405 17.992 69.0545 18.37C69.4865 18.73 69.7025 19.171 69.7025 19.693C69.7025 20.215 69.4865 20.656 69.0545 21.016C68.6405 21.358 68.0915 21.529 67.4075 21.529C66.7235 21.529 66.1835 21.358 65.7875 21.016C65.4095 20.656 65.2205 20.215 65.2205 19.693ZM80.9494 37V29.332C80.9494 28.234 80.7874 27.442 80.4634 26.956C80.1574 26.47 79.6264 26.227 78.8704 26.227C78.2044 26.227 77.6374 26.425 77.1694 26.821C76.7194 27.199 76.3954 27.676 76.1974 28.252V37H72.6874V23.5H75.4684L75.8734 25.282H75.9814C76.3954 24.706 76.9444 24.202 77.6284 23.77C78.3124 23.338 79.1944 23.122 80.2744 23.122C80.9404 23.122 81.5344 23.212 82.0564 23.392C82.5784 23.572 83.0194 23.869 83.3794 24.283C83.7394 24.697 84.0094 25.264 84.1894 25.984C84.3694 26.686 84.4594 27.559 84.4594 28.603V37H80.9494ZM102.464 31.924C102.464 31.348 102.248 30.88 101.816 30.52C101.402 30.16 100.871 29.836 100.223 29.548C99.5934 29.242 98.9004 28.936 98.1444 28.63C97.4064 28.306 96.7134 27.919 96.0654 27.469C95.4354 27.001 94.9044 26.425 94.4724 25.741C94.0584 25.057 93.8514 24.184 93.8514 23.122C93.8514 22.204 94.0044 21.412 94.3104 20.746C94.6164 20.062 95.0484 19.495 95.6064 19.045C96.1824 18.595 96.8574 18.262 97.6314 18.046C98.4054 17.83 99.2694 17.722 100.223 17.722C101.321 17.722 102.356 17.821 103.328 18.019C104.3 18.199 105.101 18.469 105.731 18.829L104.57 21.934C104.174 21.682 103.58 21.457 102.788 21.259C101.996 21.043 101.141 20.935 100.223 20.935C99.3594 20.935 98.6934 21.106 98.2254 21.448C97.7754 21.79 97.5504 22.249 97.5504 22.825C97.5504 23.365 97.7574 23.815 98.1714 24.175C98.6034 24.535 99.1344 24.868 99.7644 25.174C100.412 25.48 101.105 25.795 101.843 26.119C102.599 26.443 103.292 26.839 103.922 27.307C104.57 27.757 105.101 28.324 105.515 29.008C105.947 29.674 106.163 30.511 106.163 31.519C106.163 32.527 105.992 33.4 105.65 34.138C105.326 34.858 104.858 35.461 104.246 35.947C103.652 36.433 102.923 36.793 102.059 37.027C101.213 37.261 100.277 37.378 99.2514 37.378C97.9014 37.378 96.7134 37.252 95.6874 37C94.6614 36.748 93.9054 36.496 93.4194 36.244L94.6074 33.085C94.8054 33.193 95.0574 33.31 95.3634 33.436C95.6874 33.562 96.0474 33.679 96.4434 33.787C96.8394 33.895 97.2534 33.985 97.6854 34.057C98.1354 34.129 98.5944 34.165 99.0624 34.165C100.16 34.165 100.997 33.985 101.573 33.625C102.167 33.247 102.464 32.68 102.464 31.924ZM119.347 35.839C118.807 36.271 118.069 36.64 117.133 36.946C116.215 37.234 115.234 37.378 114.19 37.378C112.012 37.378 110.419 36.748 109.411 35.488C108.403 34.21 107.899 32.464 107.899 30.25C107.899 27.874 108.466 26.092 109.6 24.904C110.734 23.716 112.327 23.122 114.379 23.122C115.063 23.122 115.729 23.212 116.377 23.392C117.025 23.572 117.601 23.869 118.105 24.283C118.609 24.697 119.014 25.255 119.32 25.957C119.626 26.659 119.779 27.532 119.779 28.576C119.779 28.954 119.752 29.359 119.698 29.791C119.662 30.223 119.599 30.673 119.509 31.141H111.409C111.463 32.275 111.751 33.13 112.273 33.706C112.813 34.282 113.677 34.57 114.865 34.57C115.603 34.57 116.26 34.462 116.836 34.246C117.43 34.012 117.88 33.778 118.186 33.544L119.347 35.839ZM114.325 25.93C113.407 25.93 112.723 26.209 112.273 26.767C111.841 27.307 111.58 28.036 111.49 28.954H116.512C116.584 27.982 116.431 27.235 116.053 26.713C115.693 26.191 115.117 25.93 114.325 25.93ZM122.258 18.1H125.768V24.58H125.876C126.254 24.148 126.74 23.806 127.334 23.554C127.928 23.302 128.585 23.176 129.305 23.176C130.925 23.176 132.158 23.734 133.004 24.85C133.868 25.948 134.3 27.631 134.3 29.899C134.3 32.329 133.697 34.174 132.491 35.434C131.303 36.694 129.665 37.324 127.577 37.324C126.425 37.324 125.372 37.225 124.418 37.027C123.464 36.847 122.744 36.64 122.258 36.406V18.1ZM128.279 26.146C127.631 26.146 127.1 26.317 126.686 26.659C126.29 26.983 125.984 27.46 125.768 28.09V33.976C126.056 34.12 126.362 34.219 126.686 34.273C127.028 34.327 127.388 34.354 127.766 34.354C128.72 34.354 129.44 34.012 129.926 33.328C130.43 32.626 130.682 31.519 130.682 30.007C130.682 27.433 129.881 26.146 128.279 26.146ZM136.652 24.283C137.372 23.959 138.227 23.707 139.217 23.527C140.207 23.329 141.242 23.23 142.322 23.23C143.258 23.23 144.041 23.347 144.671 23.581C145.301 23.797 145.796 24.112 146.156 24.526C146.534 24.94 146.795 25.435 146.939 26.011C147.101 26.587 147.182 27.235 147.182 27.955C147.182 28.747 147.155 29.548 147.101 30.358C147.047 31.15 147.011 31.933 146.993 32.707C146.993 33.481 147.02 34.237 147.074 34.975C147.128 35.695 147.263 36.379 147.479 37.027H144.617L144.05 35.164H143.915C143.555 35.722 143.051 36.208 142.403 36.622C141.773 37.018 140.954 37.216 139.946 37.216C139.316 37.216 138.749 37.126 138.245 36.946C137.741 36.748 137.309 36.478 136.949 36.136C136.589 35.776 136.31 35.362 136.112 34.894C135.914 34.408 135.815 33.868 135.815 33.274C135.815 32.446 135.995 31.753 136.355 31.195C136.733 30.619 137.264 30.16 137.948 29.818C138.65 29.458 139.478 29.215 140.432 29.089C141.404 28.945 142.484 28.9 143.672 28.954C143.798 27.946 143.726 27.226 143.456 26.794C143.186 26.344 142.583 26.119 141.647 26.119C140.945 26.119 140.198 26.191 139.406 26.335C138.632 26.479 137.993 26.668 137.489 26.902L136.652 24.283ZM141.107 34.327C141.809 34.327 142.367 34.174 142.781 33.868C143.195 33.544 143.501 33.202 143.699 32.842V31.087C143.141 31.033 142.601 31.024 142.079 31.06C141.575 31.096 141.125 31.177 140.729 31.303C140.333 31.429 140.018 31.609 139.784 31.843C139.55 32.077 139.433 32.374 139.433 32.734C139.433 33.238 139.577 33.634 139.865 33.922C140.171 34.192 140.585 34.327 141.107 34.327ZM161.549 37C161.549 38.962 161.018 40.402 159.956 41.32C158.894 42.256 157.409 42.724 155.501 42.724C154.205 42.724 153.179 42.634 152.423 42.454C151.685 42.274 151.127 42.085 150.749 41.887L151.478 39.106C151.892 39.268 152.369 39.43 152.909 39.592C153.467 39.754 154.151 39.835 154.961 39.835C156.185 39.835 157.013 39.565 157.445 39.025C157.895 38.503 158.12 37.765 158.12 36.811V35.947H158.012C157.382 36.793 156.266 37.216 154.664 37.216C152.918 37.216 151.613 36.676 150.749 35.596C149.903 34.516 149.48 32.824 149.48 30.52C149.48 28.108 150.056 26.281 151.208 25.039C152.36 23.797 154.034 23.176 156.23 23.176C157.382 23.176 158.408 23.257 159.308 23.419C160.226 23.581 160.973 23.77 161.549 23.986V37ZM155.609 34.408C156.293 34.408 156.815 34.255 157.175 33.949C157.553 33.643 157.841 33.184 158.039 32.572V26.497C157.481 26.263 156.788 26.146 155.96 26.146C155.06 26.146 154.358 26.488 153.854 27.172C153.35 27.838 153.098 28.909 153.098 30.385C153.098 31.699 153.314 32.698 153.746 33.382C154.178 34.066 154.799 34.408 155.609 34.408ZM164.522 24.283C165.242 23.959 166.097 23.707 167.087 23.527C168.077 23.329 169.112 23.23 170.192 23.23C171.128 23.23 171.911 23.347 172.541 23.581C173.171 23.797 173.666 24.112 174.026 24.526C174.404 24.94 174.665 25.435 174.809 26.011C174.971 26.587 175.052 27.235 175.052 27.955C175.052 28.747 175.025 29.548 174.971 30.358C174.917 31.15 174.881 31.933 174.863 32.707C174.863 33.481 174.89 34.237 174.944 34.975C174.998 35.695 175.133 36.379 175.349 37.027H172.487L171.92 35.164H171.785C171.425 35.722 170.921 36.208 170.273 36.622C169.643 37.018 168.824 37.216 167.816 37.216C167.186 37.216 166.619 37.126 166.115 36.946C165.611 36.748 165.179 36.478 164.819 36.136C164.459 35.776 164.18 35.362 163.982 34.894C163.784 34.408 163.685 33.868 163.685 33.274C163.685 32.446 163.865 31.753 164.225 31.195C164.603 30.619 165.134 30.16 165.818 29.818C166.52 29.458 167.348 29.215 168.302 29.089C169.274 28.945 170.354 28.9 171.542 28.954C171.668 27.946 171.596 27.226 171.326 26.794C171.056 26.344 170.453 26.119 169.517 26.119C168.815 26.119 168.068 26.191 167.276 26.335C166.502 26.479 165.863 26.668 165.359 26.902L164.522 24.283ZM168.977 34.327C169.679 34.327 170.237 34.174 170.651 33.868C171.065 33.544 171.371 33.202 171.569 32.842V31.087C171.011 31.033 170.471 31.024 169.949 31.06C169.445 31.096 168.995 31.177 168.599 31.303C168.203 31.429 167.888 31.609 167.654 31.843C167.42 32.077 167.303 32.374 167.303 32.734C167.303 33.238 167.447 33.634 167.735 33.922C168.041 34.192 168.455 34.327 168.977 34.327ZM178.295 23.5H181.805V37H178.295V23.5ZM177.782 19.693C177.782 19.171 177.971 18.73 178.349 18.37C178.745 17.992 179.285 17.803 179.969 17.803C180.653 17.803 181.202 17.992 181.616 18.37C182.048 18.73 182.264 19.171 182.264 19.693C182.264 20.215 182.048 20.656 181.616 21.016C181.202 21.358 180.653 21.529 179.969 21.529C179.285 21.529 178.745 21.358 178.349 21.016C177.971 20.656 177.782 20.215 177.782 19.693ZM192.159 18.289C192.915 18.145 193.743 18.037 194.643 17.965C195.561 17.875 196.47 17.83 197.37 17.83C198.306 17.83 199.242 17.911 200.178 18.073C201.132 18.217 201.987 18.523 202.743 18.991C203.499 19.441 204.111 20.08 204.579 20.908C205.065 21.718 205.308 22.78 205.308 24.094C205.308 25.282 205.101 26.29 204.687 27.118C204.273 27.928 203.724 28.594 203.04 29.116C202.356 29.638 201.573 30.016 200.691 30.25C199.827 30.484 198.927 30.601 197.991 30.601C197.901 30.601 197.757 30.601 197.559 30.601C197.361 30.601 197.154 30.601 196.938 30.601C196.722 30.583 196.506 30.565 196.29 30.547C196.092 30.529 195.948 30.511 195.858 30.493V37H192.159V18.289ZM197.667 21.016C197.307 21.016 196.965 21.034 196.641 21.07C196.317 21.088 196.056 21.115 195.858 21.151V27.28C195.93 27.298 196.038 27.316 196.182 27.334C196.326 27.352 196.479 27.37 196.641 27.388C196.803 27.388 196.956 27.388 197.1 27.388C197.262 27.388 197.379 27.388 197.451 27.388C197.937 27.388 198.414 27.343 198.882 27.253C199.368 27.163 199.8 27.001 200.178 26.767C200.556 26.515 200.853 26.173 201.069 25.741C201.303 25.309 201.42 24.742 201.42 24.04C201.42 23.446 201.312 22.96 201.096 22.582C200.88 22.186 200.592 21.871 200.232 21.637C199.89 21.403 199.494 21.241 199.044 21.151C198.594 21.061 198.135 21.016 197.667 21.016ZM217.354 35.839C216.814 36.271 216.076 36.64 215.14 36.946C214.222 37.234 213.241 37.378 212.197 37.378C210.019 37.378 208.426 36.748 207.418 35.488C206.41 34.21 205.906 32.464 205.906 30.25C205.906 27.874 206.473 26.092 207.607 24.904C208.741 23.716 210.334 23.122 212.386 23.122C213.07 23.122 213.736 23.212 214.384 23.392C215.032 23.572 215.608 23.869 216.112 24.283C216.616 24.697 217.021 25.255 217.327 25.957C217.633 26.659 217.786 27.532 217.786 28.576C217.786 28.954 217.759 29.359 217.705 29.791C217.669 30.223 217.606 30.673 217.516 31.141H209.416C209.47 32.275 209.758 33.13 210.28 33.706C210.82 34.282 211.684 34.57 212.872 34.57C213.61 34.57 214.267 34.462 214.843 34.246C215.437 34.012 215.887 33.778 216.193 33.544L217.354 35.839ZM212.332 25.93C211.414 25.93 210.73 26.209 210.28 26.767C209.848 27.307 209.587 28.036 209.497 28.954H214.519C214.591 27.982 214.438 27.235 214.06 26.713C213.7 26.191 213.124 25.93 212.332 25.93ZM228.527 37V29.332C228.527 28.234 228.365 27.442 228.041 26.956C227.735 26.47 227.204 26.227 226.448 26.227C225.782 26.227 225.215 26.425 224.747 26.821C224.297 27.199 223.973 27.676 223.775 28.252V37H220.265V23.5H223.046L223.451 25.282H223.559C223.973 24.706 224.522 24.202 225.206 23.77C225.89 23.338 226.772 23.122 227.852 23.122C228.518 23.122 229.112 23.212 229.634 23.392C230.156 23.572 230.597 23.869 230.957 24.283C231.317 24.697 231.587 25.264 231.767 25.984C231.947 26.686 232.037 27.559 232.037 28.603V37H228.527ZM246.398 37C246.398 38.962 245.867 40.402 244.805 41.32C243.743 42.256 242.258 42.724 240.35 42.724C239.054 42.724 238.028 42.634 237.272 42.454C236.534 42.274 235.976 42.085 235.598 41.887L236.327 39.106C236.741 39.268 237.218 39.43 237.758 39.592C238.316 39.754 239 39.835 239.81 39.835C241.034 39.835 241.862 39.565 242.294 39.025C242.744 38.503 242.969 37.765 242.969 36.811V35.947H242.861C242.231 36.793 241.115 37.216 239.513 37.216C237.767 37.216 236.462 36.676 235.598 35.596C234.752 34.516 234.329 32.824 234.329 30.52C234.329 28.108 234.905 26.281 236.057 25.039C237.209 23.797 238.883 23.176 241.079 23.176C242.231 23.176 243.257 23.257 244.157 23.419C245.075 23.581 245.822 23.77 246.398 23.986V37ZM240.458 34.408C241.142 34.408 241.664 34.255 242.024 33.949C242.402 33.643 242.69 33.184 242.888 32.572V26.497C242.33 26.263 241.637 26.146 240.809 26.146C239.909 26.146 239.207 26.488 238.703 27.172C238.199 27.838 237.947 28.909 237.947 30.385C237.947 31.699 238.163 32.698 238.595 33.382C239.027 34.066 239.648 34.408 240.458 34.408ZM260.874 37C260.874 38.962 260.343 40.402 259.281 41.32C258.219 42.256 256.734 42.724 254.826 42.724C253.53 42.724 252.504 42.634 251.748 42.454C251.01 42.274 250.452 42.085 250.074 41.887L250.803 39.106C251.217 39.268 251.694 39.43 252.234 39.592C252.792 39.754 253.476 39.835 254.286 39.835C255.51 39.835 256.338 39.565 256.77 39.025C257.22 38.503 257.445 37.765 257.445 36.811V35.947H257.337C256.707 36.793 255.591 37.216 253.989 37.216C252.243 37.216 250.938 36.676 250.074 35.596C249.228 34.516 248.805 32.824 248.805 30.52C248.805 28.108 249.381 26.281 250.533 25.039C251.685 23.797 253.359 23.176 255.555 23.176C256.707 23.176 257.733 23.257 258.633 23.419C259.551 23.581 260.298 23.77 260.874 23.986V37ZM254.934 34.408C255.618 34.408 256.14 34.255 256.5 33.949C256.878 33.643 257.166 33.184 257.364 32.572V26.497C256.806 26.263 256.113 26.146 255.285 26.146C254.385 26.146 253.683 26.488 253.179 27.172C252.675 27.838 252.423 28.909 252.423 30.385C252.423 31.699 252.639 32.698 253.071 33.382C253.503 34.066 254.124 34.408 254.934 34.408ZM267.304 23.5V31.168C267.304 32.266 267.43 33.058 267.682 33.544C267.952 34.03 268.465 34.273 269.221 34.273C269.887 34.273 270.436 34.075 270.868 33.679C271.318 33.283 271.651 32.797 271.867 32.221V23.5H275.377V32.896C275.377 33.634 275.413 34.363 275.485 35.083C275.557 35.785 275.665 36.424 275.809 37H273.163L272.542 35.002H272.434C272.02 35.686 271.444 36.253 270.706 36.703C269.968 37.153 269.095 37.378 268.087 37.378C267.403 37.378 266.791 37.288 266.251 37.108C265.711 36.928 265.261 36.631 264.901 36.217C264.541 35.803 264.262 35.245 264.064 34.543C263.884 33.841 263.794 32.959 263.794 31.897V23.5H267.304ZM286.719 37V29.332C286.719 28.234 286.557 27.442 286.233 26.956C285.927 26.47 285.396 26.227 284.64 26.227C283.974 26.227 283.407 26.425 282.939 26.821C282.489 27.199 282.165 27.676 281.967 28.252V37H278.457V23.5H281.238L281.643 25.282H281.751C282.165 24.706 282.714 24.202 283.398 23.77C284.082 23.338 284.964 23.122 286.044 23.122C286.71 23.122 287.304 23.212 287.826 23.392C288.348 23.572 288.789 23.869 289.149 24.283C289.509 24.697 289.779 25.264 289.959 25.984C290.139 26.686 290.229 27.559 290.229 28.603V37H286.719ZM293.089 24.283C293.809 23.959 294.664 23.707 295.654 23.527C296.644 23.329 297.679 23.23 298.759 23.23C299.695 23.23 300.478 23.347 301.108 23.581C301.738 23.797 302.233 24.112 302.593 24.526C302.971 24.94 303.232 25.435 303.376 26.011C303.538 26.587 303.619 27.235 303.619 27.955C303.619 28.747 303.592 29.548 303.538 30.358C303.484 31.15 303.448 31.933 303.43 32.707C303.43 33.481 303.457 34.237 303.511 34.975C303.565 35.695 303.7 36.379 303.916 37.027H301.054L300.487 35.164H300.352C299.992 35.722 299.488 36.208 298.84 36.622C298.21 37.018 297.391 37.216 296.383 37.216C295.753 37.216 295.186 37.126 294.682 36.946C294.178 36.748 293.746 36.478 293.386 36.136C293.026 35.776 292.747 35.362 292.549 34.894C292.351 34.408 292.252 33.868 292.252 33.274C292.252 32.446 292.432 31.753 292.792 31.195C293.17 30.619 293.701 30.16 294.385 29.818C295.087 29.458 295.915 29.215 296.869 29.089C297.841 28.945 298.921 28.9 300.109 28.954C300.235 27.946 300.163 27.226 299.893 26.794C299.623 26.344 299.02 26.119 298.084 26.119C297.382 26.119 296.635 26.191 295.843 26.335C295.069 26.479 294.43 26.668 293.926 26.902L293.089 24.283ZM297.544 34.327C298.246 34.327 298.804 34.174 299.218 33.868C299.632 33.544 299.938 33.202 300.136 32.842V31.087C299.578 31.033 299.038 31.024 298.516 31.06C298.012 31.096 297.562 31.177 297.166 31.303C296.77 31.429 296.455 31.609 296.221 31.843C295.987 32.077 295.87 32.374 295.87 32.734C295.87 33.238 296.014 33.634 296.302 33.922C296.608 34.192 297.022 34.327 297.544 34.327Z" fill="white"/>
<defs>
<filter id="filter0_dd_363_4" x="0" y="0" width="323" height="68" filterUnits="userSpaceOnUse" color-interpolation-filters="sRGB">
<feFlood flood-opacity="0" result="BackgroundImageFix"/>
<feColorMatrix in="SourceAlpha" type="matrix" values="0 0 0 0 0 0 0 0 0 0 0 0 0 0 0 0 0 0 127 0" result="hardAlpha"/>
<feOffset dy="4"/>
<feGaussianBlur stdDeviation="2"/>
<feComposite in2="hardAlpha" operator="out"/>
<feColorMatrix type="matrix" values="0 0 0 0 0 0 0 0 0 0 0 0 0 0 0 0 0 0 0.25 0"/>
<feBlend mode="normal" in2="BackgroundImageFix" result="effect1_dropShadow_363_4"/>
<feColorMatrix in="SourceAlpha" type="matrix" values="0 0 0 0 0 0 0 0 0 0 0 0 0 0 0 0 0 0 127 0" result="hardAlpha"/>
<feOffset dy="4"/>
<feGaussianBlur stdDeviation="2"/>
<feComposite in2="hardAlpha" operator="out"/>
<feColorMatrix type="matrix" values="0 0 0 0 0 0 0 0 0 0 0 0 0 0 0 0 0 0 0.25 0"/>
<feBlend mode="normal" in2="effect1_dropShadow_363_4" result="effect2_dropShadow_363_4"/>
<feBlend mode="normal" in="SourceGraphic" in2="effect2_dropShadow_363_4" result="shape"/>
</filter>
</defs>
</svg>
